<svg width="269" height="5" xmlns="http://www.w3.org/2000/svg" xmlns:xlink="http://www.w3.org/1999/xlink" xml:space="preserve" overflow="hidden"><defs><clipPath id="clip0"><rect x="91" y="684" width="269" height="5"/></clipPath></defs><g clip-path="url(#clip0)" transform="translate(-91 -684)"><path d="M2.89631 4.78642 1.74557 4.78642 1.74557 0.817194 0 0.817194 0 0.038914 4.64188 0.038914 4.64188 0.817194 2.89631 0.817194 2.89631 4.78642Z" fill="#020202" transform="matrix(1.11567 0 0 1 91 684.085)"/><path d="M12.6248 4.78642 11.4796 4.78642 11.4796 2.76289 8.70562 2.76289 8.70562 4.78642 7.56043 4.78642 7.56043 0.038914 8.70562 0.038914 8.70562 1.98461 11.4796 1.98461 11.4796 0.038914 12.6248 0.038914 12.6248 4.78642Z" fill="#020202" transform="matrix(1.11567 0 0 1 91 684.085)"/><path d="M17.1277 2.00129 19.9184 2.00129 19.9184 2.75178 17.1277 2.75178 17.1277 4.00814 20.0907 4.00814 20.0907 4.78642 15.9825 4.78642 15.9825 0.038914 20.0629 0.038914 20.0629 0.817194 17.1277 0.817194 17.1277 2.00129Z" fill="#020202" transform="matrix(1.11567 0 0 1 91 684.085)"/><path d="M29.558 3.8914 29.1855 4.78642 28.0014 4.78642 29.9805 0.038914 31.6482 0.038914 33.6884 4.78642 32.5265 4.78642 32.1374 3.8914ZM30.8532 0.733807 30.8532 0.733807 29.8192 3.19651 31.8817 3.19651Z" fill="#020202" transform="matrix(1.11567 0 0 1 91 684.085)"/><path d="M36.5736 0.038914 37.7188 0.038914 37.7188 4.78642 36.5736 4.78642Z" fill="#020202" transform="matrix(1.11567 0 0 1 91 684.085)"/><path d="M42.2495 3.21874 42.2495 4.78642 41.1377 4.78642 41.1377 0.038914 44.1841 0.038914C45.4905 0.038914 45.9852 0.38914 45.9852 1.46205 45.9852 2.16807 45.9408 2.67951 44.9345 2.80181L44.9345 2.80181C45.7406 2.8574 45.9408 3.20763 45.9408 3.88028L45.9408 4.78642 44.7678 4.78642 44.7678 3.8914C44.7678 3.49114 44.5621 3.21318 44.0117 3.20763L42.2495 3.20763M43.7616 2.42935C44.6066 2.42935 44.8122 2.29593 44.8122 1.59547 44.8122 0.895022 44.6621 0.806076 43.8394 0.806076L42.2495 0.806076 42.2495 2.44046Z" fill="#020202" transform="matrix(1.11567 0 0 1 91 684.085)"/><path d="M55.5414 2.07356 58.1987 2.07356 58.1987 2.82404 55.5414 2.82404 55.5414 4.78642 54.3962 4.78642 54.3962 0.038914 58.3376 0.038914 58.3376 0.817194 55.5414 0.817194 55.5414 2.07356Z" fill="#020202" transform="matrix(1.11567 0 0 1 91 684.085)"/><path d="M66.3206 1.73445 66.3206 3.01306C66.3206 4.53626 65.5812 4.82534 63.7745 4.82534 61.9678 4.82534 61.2562 4.57517 61.2562 3.01306L61.2562 1.73445C61.2562 0.26128 61.8844 0 63.7745 0 65.4923 0 66.3206 0.211247 66.3206 1.73445M62.4292 1.73445 62.4292 3.01306C62.4292 3.95811 62.6627 4.04706 63.8023 4.04706 64.8474 4.04706 65.2032 3.93031 65.2032 3.01306L65.2032 1.73445C65.2032 0.83943 64.8252 0.77828 63.8023 0.77828 62.5737 0.77828 62.457 0.983968 62.4292 1.73445" fill="#020202" transform="matrix(1.11567 0 0 1 91 684.085)"/><path d="M70.6456 3.21874 70.6456 4.78642 69.4893 4.78642 69.4893 0.038914 72.5357 0.038914C73.8421 0.038914 74.3424 0.38914 74.3424 1.46205 74.3424 2.16807 74.2924 2.67951 73.2862 2.80181L73.2862 2.80181C74.0922 2.8574 74.2924 3.20763 74.2924 3.88028L74.2924 4.78642 73.1583 4.78642 73.1583 3.8914C73.1583 3.49114 72.9526 3.21318 72.4023 3.20763L70.6456 3.20763M72.1577 2.42935C73.0027 2.42935 73.2083 2.29593 73.2083 1.59547 73.2083 0.895022 73.0582 0.806076 72.2355 0.806076L70.6456 0.806076 70.6456 2.44046Z" fill="#020202" transform="matrix(1.11567 0 0 1 91 684.085)"/><path d="M81.208 1.62883 81.208 1.36755C81.208 0.811635 80.9355 0.77828 79.9349 0.77828 78.7786 0.77828 78.584 0.928377 78.584 1.89011L78.584 2.91299C78.584 3.8636 78.7341 4.02482 79.9349 4.02482 80.8577 4.02482 81.2691 4.02482 81.2691 3.32437L81.2691 3.08532 82.4143 3.08532 82.4143 3.39664C82.4143 4.82534 81.4136 4.7753 79.9349 4.82534 77.8335 4.88649 77.4611 4.33613 77.4333 2.9519L77.4333 1.84008C77.4333 0.316871 78.1782-0.0222366 79.9349-0.0222366 81.4192-0.0222366 82.2698-0.0222366 82.3476 1.34531L82.3476 1.60659 81.2357 1.60659" fill="#020202" transform="matrix(1.11567 0 0 1 91 684.085)"/><path d="M86.6503 2.00129 89.441 2.00129 89.441 2.75178 86.6503 2.75178 86.6503 4.00814 89.6189 4.00814 89.6189 4.78642 85.5052 4.78642 85.5052 0.038914 89.5911 0.038914 89.5911 0.817194 86.6503 0.817194 86.6503 2.00129Z" fill="#020202" transform="matrix(1.11567 0 0 1 91 684.085)"/><path d="M99.1807 3.21874 99.1807 4.78642 98.0355 4.78642 98.0355 0.038914 101.082 0.038914C102.388 0.038914 102.889 0.38914 102.889 1.46205 102.889 2.16807 102.839 2.67951 101.827 2.80181L101.827 2.80181C102.638 2.8574 102.839 3.20763 102.839 3.88028L102.839 4.78642 101.693 4.78642 101.693 3.8914C101.693 3.49114 101.488 3.21318 100.937 3.20763L99.1807 3.20763M100.693 2.42935C101.538 2.42935 101.743 2.29593 101.743 1.59547 101.743 0.895022 101.588 0.806076 100.771 0.806076L99.1807 0.806076 99.1807 2.44046Z" fill="#020202" transform="matrix(1.11567 0 0 1 91 684.085)"/><path d="M107.269 2.00129 110.06 2.00129 110.06 2.75178 107.269 2.75178 107.269 4.00814 110.232 4.00814 110.232 4.78642 106.124 4.78642 106.124 0.038914 110.21 0.038914 110.21 0.817194 107.269 0.817194 107.269 2.00129Z" fill="#020202" transform="matrix(1.11567 0 0 1 91 684.085)"/><path d="M114.39 3.27433 114.39 3.4967C114.39 4.05261 114.685 4.05261 115.741 4.05261 116.798 4.05261 116.925 3.89696 116.925 3.3466 116.925 2.66839 116.475 2.76289 115.58 2.72398 114.296 2.65727 113.279 2.72398 113.279 1.31196 113.279 0.038914 114.313 0 115.741 0 116.959 0 117.965 0.0333549 117.965 1.2786L117.965 1.43426 116.82 1.43426 116.82 1.2786C116.82 0.767162 116.559 0.750484 115.752 0.750484 114.641 0.750484 114.435 0.833871 114.435 1.33975 114.435 1.84564 114.585 1.9457 115.747 2.00129 117.581 2.09024 118.082 2.16807 118.082 3.3744 118.082 4.71415 117.287 4.82534 115.752 4.82534 114.435 4.82534 113.256 4.85869 113.256 3.4967L113.256 3.27433 114.402 3.27433" fill="#020202" transform="matrix(1.11567 0 0 1 91 684.085)"/><path d="M122.307 2.00129 125.097 2.00129 125.097 2.75178 122.307 2.75178 122.307 4.00814 125.275 4.00814 125.275 4.78642 121.162 4.78642 121.162 0.038914 125.247 0.038914 125.247 0.817194 122.307 0.817194 122.307 2.00129Z" fill="#020202" transform="matrix(1.11567 0 0 1 91 684.085)"/><path d="M129.561 3.8914 129.183 4.78642 127.999 4.78642 129.978 0.038914 131.646 0.038914 133.664 4.78642 132.502 4.78642 132.135 3.8914ZM130.857 0.733807 130.857 0.733807 129.839 3.19651 131.896 3.19651Z" fill="#020202" transform="matrix(1.11567 0 0 1 91 684.085)"/><path d="M137.678 3.21874 137.678 4.78642 136.533 4.78642 136.533 0.038914 139.579 0.038914C140.88 0.038914 141.38 0.38914 141.38 1.46205 141.38 2.16807 141.336 2.67951 140.324 2.80181L140.324 2.80181C141.136 2.8574 141.336 3.20763 141.336 3.88028L141.336 4.78642 140.19 4.78642 140.19 3.8914C140.19 3.49114 139.985 3.21318 139.434 3.20763L137.678 3.20763M139.19 2.42935C140.029 2.42935 140.235 2.29593 140.235 1.59547 140.235 0.895022 140.085 0.806076 139.268 0.806076L137.678 0.806076 137.678 2.44046Z" fill="#020202" transform="matrix(1.11567 0 0 1 91 684.085)"/><path d="M148.235 1.62883 148.235 1.36755C148.235 0.811635 147.968 0.77828 146.961 0.77828 145.811 0.77828 145.611 0.928377 145.611 1.89011L145.611 2.91299C145.611 3.8636 145.761 4.02482 146.961 4.02482 147.884 4.02482 148.296 4.02482 148.296 3.32437L148.296 3.08532 149.446 3.08532 149.446 3.39664C149.446 4.82534 148.44 4.7753 146.961 4.82534 144.866 4.88649 144.488 4.33613 144.465 2.9519L144.465 1.84008C144.465 0.339108 145.205 0 146.961 0 148.446 0 149.302 0 149.38 1.36755L149.38 1.62883 148.235 1.62883" fill="#020202" transform="matrix(1.11567 0 0 1 91 684.085)"/><path d="M157.68 4.78642 156.534 4.78642 156.534 2.76289 153.76 2.76289 153.76 4.78642 152.615 4.78642 152.615 0.038914 153.76 0.038914 153.76 1.98461 156.534 1.98461 156.534 0.038914 157.68 0.038914 157.68 4.78642Z" fill="#020202" transform="matrix(1.11567 0 0 1 91 684.085)"/><path d="M167.447 4.00814 170.226 4.00814 170.226 4.78642 166.296 4.78642 166.296 0.038914 167.447 0.038914 167.447 4.00814Z" fill="#020202" transform="matrix(1.11567 0 0 1 91 684.085)"/><path d="M174.185 3.8914 173.812 4.78642 172.628 4.78642 174.607 0.038914 176.275 0.038914 178.298 4.78642 177.137 4.78642 176.781 3.8914ZM175.48 0.733807 175.48 0.733807 174.446 3.19651 176.508 3.19651Z" fill="#020202" transform="matrix(1.11567 0 0 1 91 684.085)"/><path d="M181.184 4.78642 181.184 0.038914 184.147 0.038914C185.314 0.038914 185.903 0.227925 185.903 1.27304 185.989 1.75977 185.665 2.22426 185.178 2.31052 185.137 2.31786 185.095 2.32228 185.053 2.32372L185.053 2.35152C185.887 2.42935 186.048 2.86296 186.048 3.46335 186.048 4.51402 185.492 4.78642 184.252 4.78642L181.184 4.78642M182.329 2.00685 183.996 2.00685C184.641 2.00685 184.78 1.84564 184.78 1.33975 184.78 0.833871 184.525 0.783839 183.963 0.783839L182.34 0.783839ZM182.329 3.9859 183.891 3.9859C184.575 3.9859 184.903 3.95255 184.903 3.36328 184.903 2.77401 184.758 2.69618 184.085 2.69618L182.34 2.69618Z" fill="#020202" transform="matrix(1.11567 0 0 1 91 684.085)"/><path d="M194.125 1.73445 194.125 3.01306C194.125 4.53626 193.386 4.82534 191.579 4.82534 189.772 4.82534 189.061 4.57517 189.061 3.01306L189.061 1.73445C189.061 0.26128 189.689 0 191.579 0 193.297 0 194.125 0.211247 194.125 1.73445M190.206 1.73445 190.206 3.01306C190.206 3.95811 190.434 4.04706 191.579 4.04706 192.624 4.04706 192.98 3.93031 192.98 3.01306L192.98 1.73445C193.008 0.83943 192.596 0.77828 191.579 0.77828 190.351 0.77828 190.228 0.983968 190.206 1.73445" fill="#020202" transform="matrix(1.11567 0 0 1 91 684.085)"/><path d="M198.461 3.21874 198.461 4.78642 197.316 4.78642 197.316 0.038914 200.363 0.038914C201.663 0.038914 202.169 0.38914 202.169 1.46205 202.169 2.16807 202.119 2.67951 201.108 2.80181L201.108 2.80181C201.919 2.8574 202.119 3.20763 202.119 3.88028L202.119 4.78642 200.963 4.78642 200.963 3.8914C200.963 3.49114 200.757 3.21318 200.207 3.20763L198.461 3.20763M199.973 2.42935C200.813 2.42935 201.024 2.29593 201.024 1.59547 201.024 0.895022 200.868 0.806076 200.051 0.806076L198.461 0.806076 198.461 2.44046Z" fill="#020202" transform="matrix(1.11567 0 0 1 91 684.085)"/><path d="M206.478 3.8914 206.105 4.78642 204.921 4.78642 206.9 0.038914 208.568 0.038914 210.591 4.78642 209.43 4.78642 209.057 3.8914ZM207.779 0.733807 207.779 0.733807 206.744 3.19651 208.801 3.19651Z" fill="#020202" transform="matrix(1.11567 0 0 1 91 684.085)"/><path d="M215.383 4.78642 214.238 4.78642 214.238 0.817194 212.493 0.817194 212.493 0.038914 217.135 0.038914 217.135 0.817194 215.383 0.817194 215.383 4.78642Z" fill="#020202" transform="matrix(1.11567 0 0 1 91 684.085)"/><path d="M224.901 1.73445 224.901 3.01306C224.901 4.53626 224.161 4.82534 222.355 4.82534 220.548 4.82534 219.836 4.57517 219.836 3.01306L219.836 1.73445C219.836 0.26128 220.464 0 222.366 0 224.089 0 224.912 0.211247 224.912 1.73445M220.993 1.73445 220.993 3.01306C220.993 3.95811 221.221 4.04706 222.366 4.04706 223.411 4.04706 223.767 3.93031 223.767 3.01306L223.767 1.73445C223.767 0.83943 223.389 0.77828 222.366 0.77828 221.137 0.77828 221.015 0.983968 220.993 1.73445" fill="#020202" transform="matrix(1.11567 0 0 1 91 684.085)"/><path d="M229.226 3.21874 229.226 4.78642 228.08 4.78642 228.08 0.038914 231.127 0.038914C232.428 0.0667097 232.928 0.38914 232.928 1.46205 232.928 2.16807 232.878 2.67951 231.866 2.80181L231.866 2.80181C232.678 2.8574 232.878 3.20763 232.878 3.88028L232.878 4.78642 231.733 4.78642 231.733 3.8914C231.733 3.49114 231.527 3.21318 230.977 3.20763L229.22 3.20763M230.732 2.42935C231.572 2.42935 231.783 2.29593 231.783 1.59547 231.783 0.895022 231.627 0.806076 230.81 0.806076L229.22 0.806076 229.22 2.44046Z" fill="#020202" transform="matrix(1.11567 0 0 1 91 684.085)"/><path d="M238.91 2.96302 238.91 4.78642 237.765 4.78642 237.765 2.96302 235.608 0.038914 236.914 0.038914 238.332 2.06244 238.354 2.06244 239.794 0.038914 241.111 0.038914 238.91 2.96302Z" fill="#020202" transform="matrix(1.11567 0 0 1 91 684.085)"/></g></svg>